{
  "asset": {
    "version": "2.0",
    "generator": "THREE.GLTFExporter"
  },
  "scenes": [
    {
      "name": "AuxScene",
      "nodes": [
        8
      ]
    }
  ],
  "scene": 0,
  "nodes": [
    {
      "rotation": [
        0,
        0.9109547353632581,
        0,
        -0.41250632736875237
      ],
      "mesh": 0
    },
    {
      "translation": [
        15,
        0,
        0
      ],
      "extras": {
        "name": "Jupiter",
        "diameter": 96,
        "scale": 0.15,
        "color": 15120540,
        "positionX": 15,
        "info": "Diameter ~96mm, 11x larger than Earth\nGas giant, largest planet in Solar System",
        "mesh": {
          "metadata": {
            "version": 4.5,
            "type": "Object",
            "generator": "Object3D.toJSON"
          },
          "geometries": [
            {
              "uuid": "CC2E677D-42C8-4BFA-96F5-320C67279345",
              "type": "SphereGeometry",
              "radius": 7.199999999999999,
              "widthSegments": 64,
              "heightSegments": 64,
              "phiStart": 0,
              "phiLength": 6.283185307179586,
              "thetaStart": 0,
              "thetaLength": 3.141592653589793
            }
          ],
          "materials": [
            {
              "uuid": "7B4F84F7-7AAB-4D0F-A81E-148C22644A92",
              "type": "MeshPhongMaterial",
              "color": 15120540,
              "emissive": 0,
              "specular": 3355443,
              "shininess": 60,
              "bumpMap": "95440F20-7CC3-47FF-B600-F784C55F9B98",
              "bumpScale": 0.72,
              "reflectivity": 1,
              "refractionRatio": 0.98,
              "depthFunc": 3,
              "depthTest": true,
              "depthWrite": true,
              "colorWrite": true,
              "stencilWrite": false,
              "stencilWriteMask": 255,
              "stencilFunc": 519,
              "stencilRef": 0,
              "stencilFuncMask": 255,
              "stencilFail": 7680,
              "stencilZFail": 7680,
              "stencilZPass": 7680
            }
          ],
          "textures": [
            {
              "uuid": "95440F20-7CC3-47FF-B600-F784C55F9B98",
              "name": "",
              "mapping": 300,
              "repeat": [
                1,
                1
              ],
              "offset": [
                0,
                0
              ],
              "center": [
                0,
                0
              ],
              "rotation": 0,
              "wrap": [
                1001,
                1001
              ],
              "format": 1023,
              "type": 1009,
              "encoding": 3000,
              "minFilter": 1008,
              "magFilter": 1006,
              "anisotropy": 1,
              "flipY": true,
              "premultiplyAlpha": false,
              "unpackAlignment": 4,
              "image": "535A17A0-4439-47E4-95A0-434F68BD4B1F"
            }
          ],
          "images": [
            {
              "uuid": "535A17A0-4439-47E4-95A0-434F68BD4B1F",
              "url": "data:image/png;base64,"
            }
          ],
          "object": {
            "uuid": "FE9FEAE1-9E26-403C-8529-B47FC2240B22",
            "type": "Mesh",
            "castShadow": true,
            "receiveShadow": true,
            "layers": 1,
            "matrix": [
              -0.6596770597614872,
              0,
              0.7515491845677427,
              0,
              0,
              1,
              0,
              0,
              -0.7515491845677427,
              0,
              -0.6596770597614872,
              0,
              0,
              0,
              0,
              1
            ],
            "geometry": "CC2E677D-42C8-4BFA-96F5-320C67279345",
            "material": "7B4F84F7-7AAB-4D0F-A81E-148C22644A92"
          }
        }
      },
      "children": [
        0
      ]
    },
    {
      "rotation": [
        0,
        0.9109547353632581,
        0,
        -0.41250632736875237
      ],
      "mesh": 1
    },
    {
      "translation": [
        5,
        0,
        0
      ],
      "extras": {
        "name": "Earth",
        "diameter": 8.6,
        "scale": 0.15,
        "color": 4886754,
        "positionX": 5,
        "info": "Diameter ~8.6mm\nRocky planet with atmosphere and liquid water",
        "mesh": {
          "metadata": {
            "version": 4.5,
            "type": "Object",
            "generator": "Object3D.toJSON"
          },
          "geometries": [
            {
              "uuid": "06243720-F04C-4FF6-B510-3CED58E9CBB7",
              "type": "SphereGeometry",
              "radius": 0.6449999999999999,
              "widthSegments": 64,
              "heightSegments": 64,
              "phiStart": 0,
              "phiLength": 6.283185307179586,
              "thetaStart": 0,
              "thetaLength": 3.141592653589793
            }
          ],
          "materials": [
            {
              "uuid": "F69CD721-B297-494F-B5A5-09D424231509",
              "type": "MeshPhongMaterial",
              "color": 4886754,
              "emissive": 0,
              "specular": 3355443,
              "shininess": 60,
              "bumpMap": "B9D775AA-C9DF-44F9-8224-CA7242434F2A",
              "bumpScale": 0.06449999999999999,
              "reflectivity": 1,
              "refractionRatio": 0.98,
              "depthFunc": 3,
              "depthTest": true,
              "depthWrite": true,
              "colorWrite": true,
              "stencilWrite": false,
              "stencilWriteMask": 255,
              "stencilFunc": 519,
              "stencilRef": 0,
              "stencilFuncMask": 255,
              "stencilFail": 7680,
              "stencilZFail": 7680,
              "stencilZPass": 7680
            }
          ],
          "textures": [
            {
              "uuid": "B9D775AA-C9DF-44F9-8224-CA7242434F2A",
              "name": "",
              "mapping": 300,
              "repeat": [
                1,
                1
              ],
              "offset": [
                0,
                0
              ],
              "center": [
                0,
                0
              ],
              "rotation": 0,
              "wrap": [
                1001,
                1001
              ],
              "format": 1023,
              "type": 1009,
              "encoding": 3000,
              "minFilter": 1008,
              "magFilter": 1006,
              "anisotropy": 1,
              "flipY": true,
              "premultiplyAlpha": false,
              "unpackAlignment": 4,
              "image": "2F4D26C8-9C6C-4799-95EF-2CDAE2264332"
            }
          ],
          "images": [
            {
              "uuid": "2F4D26C8-9C6C-4799-95EF-2CDAE2264332",
              "url": "data:image/png;base64,"
            }
          ],
          "object": {
            "uuid": "CF7EF4BA-D90C-47DF-A28B-45B4AE3F9FBC",
            "type": "Mesh",
            "castShadow": true,
            "receiveShadow": true,
            "layers": 1,
            "matrix": [
              -0.6596770597614872,
              0,
              0.7515491845677427,
              0,
              0,
              1,
              0,
              0,
              -0.7515491845677427,
              0,
              -0.6596770597614872,
              0,
              0,
              0,
              0,
              1
            ],
            "geometry": "06243720-F04C-4FF6-B510-3CED58E9CBB7",
            "material": "F69CD721-B297-494F-B5A5-09D424231509"
          }
        }
      },
      "children": [
        2
      ]
    },
    {
      "rotation": [
        0,
        0.9109547353632581,
        0,
        -0.41250632736875237
      ],
      "mesh": 2
    },
    {
      "translation": [
        -5,
        0,
        0
      ],
      "extras": {
        "name": "Venus",
        "diameter": 8.2,
        "scale": 0.15,
        "color": 16098851,
        "positionX": -5,
        "info": "Diameter ~8.2mm, similar size to Earth\nCovered by thick carbon dioxide atmosphere",
        "mesh": {
          "metadata": {
            "version": 4.5,
            "type": "Object",
            "generator": "Object3D.toJSON"
          },
          "geometries": [
            {
              "uuid": "4DD8E594-2859-4DAE-A68C-6B291F8C8897",
              "type": "SphereGeometry",
              "radius": 0.6149999999999999,
              "widthSegments": 64,
              "heightSegments": 64,
              "phiStart": 0,
              "phiLength": 6.283185307179586,
              "thetaStart": 0,
              "thetaLength": 3.141592653589793
            }
          ],
          "materials": [
            {
              "uuid": "F710EFC2-D0D7-49BD-9C89-B1F1E42AE13E",
              "type": "MeshPhongMaterial",
              "color": 16098851,
              "emissive": 0,
              "specular": 3355443,
              "shininess": 60,
              "bumpMap": "B7C57455-CB94-42DA-B8F0-26B371F5D6D0",
              "bumpScale": 0.06149999999999999,
              "reflectivity": 1,
              "refractionRatio": 0.98,
              "depthFunc": 3,
              "depthTest": true,
              "depthWrite": true,
              "colorWrite": true,
              "stencilWrite": false,
              "stencilWriteMask": 255,
              "stencilFunc": 519,
              "stencilRef": 0,
              "stencilFuncMask": 255,
              "stencilFail": 7680,
              "stencilZFail": 7680,
              "stencilZPass": 7680
            }
          ],
          "textures": [
            {
              "uuid": "B7C57455-CB94-42DA-B8F0-26B371F5D6D0",
              "name": "",
              "mapping": 300,
              "repeat": [
                1,
                1
              ],
              "offset": [
                0,
                0
              ],
              "center": [
                0,
                0
              ],
              "rotation": 0,
              "wrap": [
                1001,
                1001
              ],
              "format": 1023,
              "type": 1009,
              "encoding": 3000,
              "minFilter": 1008,
              "magFilter": 1006,
              "anisotropy": 1,
              "flipY": true,
              "premultiplyAlpha": false,
              "unpackAlignment": 4,
              "image": "34C884F2-A704-4393-ACBC-32578C74AC82"
            }
          ],
          "images": [
            {
              "uuid": "34C884F2-A704-4393-ACBC-32578C74AC82",
              "url": "data:image/png;base64,"
            }
          ],
          "object": {
            "uuid": "53959E66-2F26-4E4F-A2FE-43182FCB8ACF",
            "type": "Mesh",
            "castShadow": true,
            "receiveShadow": true,
            "layers": 1,
            "matrix": [
              -0.6596770597614872,
              0,
              0.7515491845677427,
              0,
              0,
              1,
              0,
              0,
              -0.7515491845677427,
              0,
              -0.6596770597614872,
              0,
              0,
              0,
              0,
              1
            ],
            "geometry": "4DD8E594-2859-4DAE-A68C-6B291F8C8897",
            "material": "F710EFC2-D0D7-49BD-9C89-B1F1E42AE13E"
          }
        }
      },
      "children": [
        4
      ]
    },
    {
      "rotation": [
        0,
        0.9109547353632581,
        0,
        -0.41250632736875237
      ],
      "mesh": 3
    },
    {
      "translation": [
        -15,
        0,
        0
      ],
      "extras": {
        "name": "Mars",
        "diameter": 4.6,
        "scale": 0.15,
        "color": 15158332,
        "positionX": -15,
        "info": "Diameter ~4.6mm, half the size of Earth\nKnown as the \"Red Planet\" with thin atmosphere",
        "mesh": {
          "metadata": {
            "version": 4.5,
            "type": "Object",
            "generator": "Object3D.toJSON"
          },
          "geometries": [
            {
              "uuid": "C3C84430-9335-4700-8461-38D2D009E73A",
              "type": "SphereGeometry",
              "radius": 0.345,
              "widthSegments": 64,
              "heightSegments": 64,
              "phiStart": 0,
              "phiLength": 6.283185307179586,
              "thetaStart": 0,
              "thetaLength": 3.141592653589793
            }
          ],
          "materials": [
            {
              "uuid": "4B50EBCE-281B-4D60-BF1B-11AE13ACF1C4",
              "type": "MeshPhongMaterial",
              "color": 15158332,
              "emissive": 0,
              "specular": 3355443,
              "shininess": 60,
              "bumpMap": "97655869-2258-471B-A5D1-CD8058DA38B7",
              "bumpScale": 0.034499999999999996,
              "reflectivity": 1,
              "refractionRatio": 0.98,
              "depthFunc": 3,
              "depthTest": true,
              "depthWrite": true,
              "colorWrite": true,
              "stencilWrite": false,
              "stencilWriteMask": 255,
              "stencilFunc": 519,
              "stencilRef": 0,
              "stencilFuncMask": 255,
              "stencilFail": 7680,
              "stencilZFail": 7680,
              "stencilZPass": 7680
            }
          ],
          "textures": [
            {
              "uuid": "97655869-2258-471B-A5D1-CD8058DA38B7",
              "name": "",
              "mapping": 300,
              "repeat": [
                1,
                1
              ],
              "offset": [
                0,
                0
              ],
              "center": [
                0,
                0
              ],
              "rotation": 0,
              "wrap": [
                1001,
                1001
              ],
              "format": 1023,
              "type": 1009,
              "encoding": 3000,
              "minFilter": 1008,
              "magFilter": 1006,
              "anisotropy": 1,
              "flipY": true,
              "premultiplyAlpha": false,
              "unpackAlignment": 4,
              "image": "25418946-E858-44B0-A126-FB8736F5D3AC"
            }
          ],
          "images": [
            {
              "uuid": "25418946-E858-44B0-A126-FB8736F5D3AC",
              "url": "data:image/png;base64,"
            }
          ],
          "object": {
            "uuid": "92A956A3-EE9C-4510-B77F-510821C7CC89",
            "type": "Mesh",
            "castShadow": true,
            "receiveShadow": true,
            "layers": 1,
            "matrix": [
              -0.6596770597614872,
              0,
              0.7515491845677427,
              0,
              0,
              1,
              0,
              0,
              -0.7515491845677427,
              0,
              -0.6596770597614872,
              0,
              0,
              0,
              0,
              1
            ],
            "geometry": "C3C84430-9335-4700-8461-38D2D009E73A",
            "material": "4B50EBCE-281B-4D60-BF1B-11AE13ACF1C4"
          }
        }
      },
      "children": [
        6
      ]
    },
    {
      "rotation": [
        0,
        0.6805404602881309,
        0,
        0.7327105034806168
      ],
      "children": [
        1,
        3,
        5,
        7
      ]
    }
  ],
  "bufferViews": [
    {
      "buffer": 0,
      "byteOffset": 0,
      "byteLength": 50700,
      "target": 34962,
      "byteStride": 12
    },
    {
      "buffer": 0,
      "byteOffset": 50700,
      "byteLength": 50700,
      "target": 34962,
      "byteStride": 12
    },
    {
      "buffer": 0,
      "byteOffset": 101400,
      "byteLength": 33800,
      "target": 34962,
      "byteStride": 8
    },
    {
      "buffer": 0,
      "byteOffset": 135200,
      "byteLength": 48384,
      "target": 34963
    },
    {
      "buffer": 0,
      "byteOffset": 183584,
      "byteLength": 50700,
      "target": 34962,
      "byteStride": 12
    },
    {
      "buffer": 0,
      "byteOffset": 234284,
      "byteLength": 50700,
      "target": 34962,
      "byteStride": 12
    },
    {
      "buffer": 0,
      "byteOffset": 284984,
      "byteLength": 33800,
      "target": 34962,
      "byteStride": 8
    },
    {
      "buffer": 0,
      "byteOffset": 318784,
      "byteLength": 48384,
      "target": 34963
    },
    {
      "buffer": 0,
      "byteOffset": 367168,
      "byteLength": 50700,
      "target": 34962,
      "byteStride": 12
    },
    {
      "buffer": 0,
      "byteOffset": 417868,
      "byteLength": 50700,
      "target": 34962,
      "byteStride": 12
    },
    {
      "buffer": 0,
      "byteOffset": 468568,
      "byteLength": 33800,
      "target": 34962,
      "byteStride": 8
    },
    {
      "buffer": 0,
      "byteOffset": 502368,
      "byteLength": 48384,
      "target": 34963
    },
    {
      "buffer": 0,
      "byteOffset": 550752,
      "byteLength": 50700,
      "target": 34962,
      "byteStride": 12
    },
    {
      "buffer": 0,
      "byteOffset": 601452,
      "byteLength": 50700,
      "target": 34962,
      "byteStride": 12
    },
    {
      "buffer": 0,
      "byteOffset": 652152,
      "byteLength": 33800,
      "target": 34962,
      "byteStride": 8
    },
    {
      "buffer": 0,
      "byteOffset": 685952,
      "byteLength": 48384,
      "target": 34963
    }
  ],
  "buffers": [
    {
      "byteLength": 734336,
      "uri": "data:application/octet-stream;base64,"
    }
  ],
  "accessors": [
    {
      "bufferView": 0,
      "componentType": 5126,
      "count": 4225,
      "max": [
        7.199999809265137,
        7.199999809265137,
        7.199999809265137
      ],
      "min": [
        -7.199999809265137,
        -7.199999809265137,
        -7.199999809265137
      ],
      "type": "VEC3"
    },
    {
      "bufferView": 1,
      "componentType": 5126,
      "count": 4225,
      "max": [
        1,
        1,
        1
      ],
      "min": [
        -1,
        -1,
        -1
      ],
      "type": "VEC3"
    },
    {
      "bufferView": 2,
      "componentType": 5126,
      "count": 4225,
      "max": [
        1.0078125,
        1
      ],
      "min": [
        -0.0078125,
        0
      ],
      "type": "VEC2"
    },
    {
      "bufferView": 3,
      "componentType": 5123,
      "count": 24192,
      "max": [
        4224
      ],
      "min": [
        0
      ],
      "type": "SCALAR"
    },
    {
      "bufferView": 4,
      "componentType": 5126,
      "count": 4225,
      "max": [
        0.6449999809265137,
        0.6449999809265137,
        0.6449999809265137
      ],
      "min": [
        -0.6449999809265137,
        -0.6449999809265137,
        -0.6449999809265137
      ],
      "type": "VEC3"
    },
    {
      "bufferView": 5,
      "componentType": 5126,
      "count": 4225,
      "max": [
        1,
        1,
        1
      ],
      "min": [
        -1,
        -1,
        -1
      ],
      "type": "VEC3"
    },
    {
      "bufferView": 6,
      "componentType": 5126,
      "count": 4225,
      "max": [
        1.0078125,
        1
      ],
      "min": [
        -0.0078125,
        0
      ],
      "type": "VEC2"
    },
    {
      "bufferView": 7,
      "componentType": 5123,
      "count": 24192,
      "max": [
        4224
      ],
      "min": [
        0
      ],
      "type": "SCALAR"
    },
    {
      "bufferView": 8,
      "componentType": 5126,
      "count": 4225,
      "max": [
        0.6150000095367432,
        0.6150000095367432,
        0.6150000095367432
      ],
      "min": [
        -0.6150000095367432,
        -0.6150000095367432,
        -0.6150000095367432
      ],
      "type": "VEC3"
    },
    {
      "bufferView": 9,
      "componentType": 5126,
      "count": 4225,
      "max": [
        1,
        1,
        1
      ],
      "min": [
        -1,
        -1,
        -1
      ],
      "type": "VEC3"
    },
    {
      "bufferView": 10,
      "componentType": 5126,
      "count": 4225,
      "max": [
        1.0078125,
        1
      ],
      "min": [
        -0.0078125,
        0
      ],
      "type": "VEC2"
    },
    {
      "bufferView": 11,
      "componentType": 5123,
      "count": 24192,
      "max": [
        4224
      ],
      "min": [
        0
      ],
      "type": "SCALAR"
    },
    {
      "bufferView": 12,
      "componentType": 5126,
      "count": 4225,
      "max": [
        0.3449999988079071,
        0.3449999988079071,
        0.3449999988079071
      ],
      "min": [
        -0.3449999988079071,
        -0.3449999988079071,
        -0.3449999988079071
      ],
      "type": "VEC3"
    },
    {
      "bufferView": 13,
      "componentType": 5126,
      "count": 4225,
      "max": [
        1,
        1,
        1
      ],
      "min": [
        -1,
        -1,
        -1
      ],
      "type": "VEC3"
    },
    {
      "bufferView": 14,
      "componentType": 5126,
      "count": 4225,
      "max": [
        1.0078125,
        1
      ],
      "min": [
        -0.0078125,
        0
      ],
      "type": "VEC2"
    },
    {
      "bufferView": 15,
      "componentType": 5123,
      "count": 24192,
      "max": [
        4224
      ],
      "min": [
        0
      ],
      "type": "SCALAR"
    }
  ],
  "materials": [
    {
      "pbrMetallicRoughness": {
        "baseColorFactor": [
          0.9019607843137255,
          0.7215686274509804,
          0.611764705882353,
          1
        ],
        "metallicFactor": 0.5,
        "roughnessFactor": 0.5
      }
    },
    {
      "pbrMetallicRoughness": {
        "baseColorFactor": [
          0.2901960784313726,
          0.5647058823529412,
          0.8862745098039215,
          1
        ],
        "metallicFactor": 0.5,
        "roughnessFactor": 0.5
      }
    },
    {
      "pbrMetallicRoughness": {
        "baseColorFactor": [
          0.9607843137254902,
          0.6509803921568628,
          0.13725490196078433,
          1
        ],
        "metallicFactor": 0.5,
        "roughnessFactor": 0.5
      }
    },
    {
      "pbrMetallicRoughness": {
        "baseColorFactor": [
          0.9058823529411765,
          0.2980392156862745,
          0.23529411764705882,
          1
        ],
        "metallicFactor": 0.5,
        "roughnessFactor": 0.5
      }
    }
  ],
  "meshes": [
    {
      "primitives": [
        {
          "mode": 4,
          "attributes": {
            "POSITION": 0,
            "NORMAL": 1,
            "TEXCOORD_0": 2
          },
          "indices": 3,
          "material": 0
        }
      ]
    },
    {
      "primitives": [
        {
          "mode": 4,
          "attributes": {
            "POSITION": 4,
            "NORMAL": 5,
            "TEXCOORD_0": 6
          },
          "indices": 7,
          "material": 1
        }
      ]
    },
    {
      "primitives": [
        {
          "mode": 4,
          "attributes": {
            "POSITION": 8,
            "NORMAL": 9,
            "TEXCOORD_0": 10
          },
          "indices": 11,
          "material": 2
        }
      ]
    },
    {
      "primitives": [
        {
          "mode": 4,
          "attributes": {
            "POSITION": 12,
            "NORMAL": 13,
            "TEXCOORD_0": 14
          },
          "indices": 15,
          "material": 3
        }
      ]
    }
  ]
}