{
  "asset": {
    "version": "2.0",
    "generator": "THREE.GLTFExporter"
  },
  "scenes": [
    {
      "name": "AuxScene",
      "nodes": [
        8
      ]
    }
  ],
  "scene": 0,
  "nodes": [
    {
      "rotation": [
        0,
        0.7956016200363665,
        0,
        0.6058201566434622
      ],
      "name": "Jupiter",
      "mesh": 0
    },
    {
      "translation": [
        15,
        0,
        0
      ],
      "name": "Jupiter",
      "extras": {
        "name": "Jupiter",
        "diameter": 96,
        "scale": 0.15,
        "color": 15120540,
        "positionX": 15,
        "info": "Diameter ~96mm, 11x larger than Earth\nGas giant, largest planet in Solar System",
        "mesh": {
          "metadata": {
            "version": 4.5,
            "type": "Object",
            "generator": "Object3D.toJSON"
          },
          "geometries": [
            {
              "uuid": "9CEAEE3F-72CD-43CF-BAC4-BA8D2C1751D4",
              "type": "SphereGeometry",
              "radius": 7.199999999999999,
              "widthSegments": 64,
              "heightSegments": 64,
              "phiStart": 0,
              "phiLength": 6.283185307179586,
              "thetaStart": 0,
              "thetaLength": 3.141592653589793
            }
          ],
          "materials": [
            {
              "uuid": "9CFCAD17-34DB-4E59-9DE4-F620953B6EB2",
              "type": "MeshPhongMaterial",
              "color": 15120540,
              "emissive": 0,
              "specular": 3355443,
              "shininess": 60,
              "bumpMap": "05CB403E-6616-402B-86F9-949667FA2889",
              "bumpScale": 0.72,
              "reflectivity": 1,
              "refractionRatio": 0.98,
              "depthFunc": 3,
              "depthTest": true,
              "depthWrite": true,
              "colorWrite": true,
              "stencilWrite": false,
              "stencilWriteMask": 255,
              "stencilFunc": 519,
              "stencilRef": 0,
              "stencilFuncMask": 255,
              "stencilFail": 7680,
              "stencilZFail": 7680,
              "stencilZPass": 7680
            }
          ],
          "textures": [
            {
              "uuid": "05CB403E-6616-402B-86F9-949667FA2889",
              "name": "",
              "mapping": 300,
              "repeat": [
                1,
                1
              ],
              "offset": [
                0,
                0
              ],
              "center": [
                0,
                0
              ],
              "rotation": 0,
              "wrap": [
                1001,
                1001
              ],
              "format": 1023,
              "type": 1009,
              "encoding": 3000,
              "minFilter": 1008,
              "magFilter": 1006,
              "anisotropy": 1,
              "flipY": true,
              "premultiplyAlpha": false,
              "unpackAlignment": 4,
              "image": "83DD7F01-0C25-437B-A794-9429AA84C607"
            }
          ],
          "images": [
            {
              "uuid": "83DD7F01-0C25-437B-A794-9429AA84C607",
              "url": "data:image/png;base64,"
            }
          ],
          "object": {
            "uuid": "35473A08-64A2-4D88-9205-BC69D2354208",
            "type": "Mesh",
            "name": "Jupiter",
            "castShadow": true,
            "receiveShadow": true,
            "layers": 1,
            "matrix": [
              -0.2659638756089817,
              0,
              -0.9639829961524478,
              0,
              0,
              1,
              0,
              0,
              0.9639829961524478,
              0,
              -0.2659638756089817,
              0,
              0,
              0,
              0,
              1
            ],
            "geometry": "9CEAEE3F-72CD-43CF-BAC4-BA8D2C1751D4",
            "material": "9CFCAD17-34DB-4E59-9DE4-F620953B6EB2"
          }
        }
      },
      "children": [
        0
      ]
    },
    {
      "rotation": [
        0,
        0.7956016200363665,
        0,
        0.6058201566434622
      ],
      "name": "Earth",
      "mesh": 1
    },
    {
      "translation": [
        5,
        0,
        0
      ],
      "name": "Earth",
      "extras": {
        "name": "Earth",
        "diameter": 8.6,
        "scale": 0.15,
        "color": 4886754,
        "positionX": 5,
        "info": "Diameter ~8.6mm\nRocky planet with atmosphere and liquid water",
        "mesh": {
          "metadata": {
            "version": 4.5,
            "type": "Object",
            "generator": "Object3D.toJSON"
          },
          "geometries": [
            {
              "uuid": "FC3BB970-AFA0-47EC-8247-195DF65AF4CA",
              "type": "SphereGeometry",
              "radius": 0.6449999999999999,
              "widthSegments": 64,
              "heightSegments": 64,
              "phiStart": 0,
              "phiLength": 6.283185307179586,
              "thetaStart": 0,
              "thetaLength": 3.141592653589793
            }
          ],
          "materials": [
            {
              "uuid": "3BC63E8A-72B3-45F9-8417-D0F1EDF6417E",
              "type": "MeshPhongMaterial",
              "color": 4886754,
              "emissive": 0,
              "specular": 3355443,
              "shininess": 60,
              "bumpMap": "8DAF6F60-D112-459B-9E56-2AD43C3D08D1",
              "bumpScale": 0.06449999999999999,
              "reflectivity": 1,
              "refractionRatio": 0.98,
              "depthFunc": 3,
              "depthTest": true,
              "depthWrite": true,
              "colorWrite": true,
              "stencilWrite": false,
              "stencilWriteMask": 255,
              "stencilFunc": 519,
              "stencilRef": 0,
              "stencilFuncMask": 255,
              "stencilFail": 7680,
              "stencilZFail": 7680,
              "stencilZPass": 7680
            }
          ],
          "textures": [
            {
              "uuid": "8DAF6F60-D112-459B-9E56-2AD43C3D08D1",
              "name": "",
              "mapping": 300,
              "repeat": [
                1,
                1
              ],
              "offset": [
                0,
                0
              ],
              "center": [
                0,
                0
              ],
              "rotation": 0,
              "wrap": [
                1001,
                1001
              ],
              "format": 1023,
              "type": 1009,
              "encoding": 3000,
              "minFilter": 1008,
              "magFilter": 1006,
              "anisotropy": 1,
              "flipY": true,
              "premultiplyAlpha": false,
              "unpackAlignment": 4,
              "image": "97534BE2-7674-46DE-B7CD-57C06D8F1FA9"
            }
          ],
          "images": [
            {
              "uuid": "97534BE2-7674-46DE-B7CD-57C06D8F1FA9",
              "url": "data:image/png;base64,"
            }
          ],
          "object": {
            "uuid": "2DDA9498-FCCD-4C18-AC9E-FF96DC075D60",
            "type": "Mesh",
            "name": "Earth",
            "castShadow": true,
            "receiveShadow": true,
            "layers": 1,
            "matrix": [
              -0.2659638756089817,
              0,
              -0.9639829961524478,
              0,
              0,
              1,
              0,
              0,
              0.9639829961524478,
              0,
              -0.2659638756089817,
              0,
              0,
              0,
              0,
              1
            ],
            "geometry": "FC3BB970-AFA0-47EC-8247-195DF65AF4CA",
            "material": "3BC63E8A-72B3-45F9-8417-D0F1EDF6417E"
          }
        }
      },
      "children": [
        2
      ]
    },
    {
      "rotation": [
        0,
        0.7956016200363665,
        0,
        0.6058201566434622
      ],
      "name": "Venus",
      "mesh": 2
    },
    {
      "translation": [
        -5,
        0,
        0
      ],
      "name": "Venus",
      "extras": {
        "name": "Venus",
        "diameter": 8.2,
        "scale": 0.15,
        "color": 16098851,
        "positionX": -5,
        "info": "Diameter ~8.2mm, similar size to Earth\nCovered by thick carbon dioxide atmosphere",
        "mesh": {
          "metadata": {
            "version": 4.5,
            "type": "Object",
            "generator": "Object3D.toJSON"
          },
          "geometries": [
            {
              "uuid": "B6FF8A5C-0127-41A3-8D1B-AE3978C07CA6",
              "type": "SphereGeometry",
              "radius": 0.6149999999999999,
              "widthSegments": 64,
              "heightSegments": 64,
              "phiStart": 0,
              "phiLength": 6.283185307179586,
              "thetaStart": 0,
              "thetaLength": 3.141592653589793
            }
          ],
          "materials": [
            {
              "uuid": "0ECC8E98-33A9-46A7-BDBB-7EC117BF3AEA",
              "type": "MeshPhongMaterial",
              "color": 16098851,
              "emissive": 0,
              "specular": 3355443,
              "shininess": 60,
              "bumpMap": "4DB27F6B-9160-45E6-BEFF-F672D36B0B7E",
              "bumpScale": 0.06149999999999999,
              "reflectivity": 1,
              "refractionRatio": 0.98,
              "depthFunc": 3,
              "depthTest": true,
              "depthWrite": true,
              "colorWrite": true,
              "stencilWrite": false,
              "stencilWriteMask": 255,
              "stencilFunc": 519,
              "stencilRef": 0,
              "stencilFuncMask": 255,
              "stencilFail": 7680,
              "stencilZFail": 7680,
              "stencilZPass": 7680
            }
          ],
          "textures": [
            {
              "uuid": "4DB27F6B-9160-45E6-BEFF-F672D36B0B7E",
              "name": "",
              "mapping": 300,
              "repeat": [
                1,
                1
              ],
              "offset": [
                0,
                0
              ],
              "center": [
                0,
                0
              ],
              "rotation": 0,
              "wrap": [
                1001,
                1001
              ],
              "format": 1023,
              "type": 1009,
              "encoding": 3000,
              "minFilter": 1008,
              "magFilter": 1006,
              "anisotropy": 1,
              "flipY": true,
              "premultiplyAlpha": false,
              "unpackAlignment": 4,
              "image": "3E0CDB76-6965-486B-9A31-60D0FF4B6BBB"
            }
          ],
          "images": [
            {
              "uuid": "3E0CDB76-6965-486B-9A31-60D0FF4B6BBB",
              "url": "data:image/png;base64,"
            }
          ],
          "object": {
            "uuid": "12C63922-AA2C-429D-8180-C3DE6D005874",
            "type": "Mesh",
            "name": "Venus",
            "castShadow": true,
            "receiveShadow": true,
            "layers": 1,
            "matrix": [
              -0.2659638756089817,
              0,
              -0.9639829961524478,
              0,
              0,
              1,
              0,
              0,
              0.9639829961524478,
              0,
              -0.2659638756089817,
              0,
              0,
              0,
              0,
              1
            ],
            "geometry": "B6FF8A5C-0127-41A3-8D1B-AE3978C07CA6",
            "material": "0ECC8E98-33A9-46A7-BDBB-7EC117BF3AEA"
          }
        }
      },
      "children": [
        4
      ]
    },
    {
      "rotation": [
        0,
        0.7956016200363665,
        0,
        0.6058201566434622
      ],
      "name": "Mars",
      "mesh": 3
    },
    {
      "translation": [
        -15,
        0,
        0
      ],
      "name": "Mars",
      "extras": {
        "name": "Mars",
        "diameter": 4.6,
        "scale": 0.15,
        "color": 15158332,
        "positionX": -15,
        "info": "Diameter ~4.6mm, half the size of Earth\nKnown as the \"Red Planet\" with thin atmosphere",
        "mesh": {
          "metadata": {
            "version": 4.5,
            "type": "Object",
            "generator": "Object3D.toJSON"
          },
          "geometries": [
            {
              "uuid": "7A47CBB7-6DFA-4AAE-BE75-58E627F153DC",
              "type": "SphereGeometry",
              "radius": 0.345,
              "widthSegments": 64,
              "heightSegments": 64,
              "phiStart": 0,
              "phiLength": 6.283185307179586,
              "thetaStart": 0,
              "thetaLength": 3.141592653589793
            }
          ],
          "materials": [
            {
              "uuid": "32404C23-8862-4CBB-B636-76831E1E4737",
              "type": "MeshPhongMaterial",
              "color": 15158332,
              "emissive": 0,
              "specular": 3355443,
              "shininess": 60,
              "bumpMap": "948BE37C-8007-4DA8-BE9D-1E2B41117523",
              "bumpScale": 0.034499999999999996,
              "reflectivity": 1,
              "refractionRatio": 0.98,
              "depthFunc": 3,
              "depthTest": true,
              "depthWrite": true,
              "colorWrite": true,
              "stencilWrite": false,
              "stencilWriteMask": 255,
              "stencilFunc": 519,
              "stencilRef": 0,
              "stencilFuncMask": 255,
              "stencilFail": 7680,
              "stencilZFail": 7680,
              "stencilZPass": 7680
            }
          ],
          "textures": [
            {
              "uuid": "948BE37C-8007-4DA8-BE9D-1E2B41117523",
              "name": "",
              "mapping": 300,
              "repeat": [
                1,
                1
              ],
              "offset": [
                0,
                0
              ],
              "center": [
                0,
                0
              ],
              "rotation": 0,
              "wrap": [
                1001,
                1001
              ],
              "format": 1023,
              "type": 1009,
              "encoding": 3000,
              "minFilter": 1008,
              "magFilter": 1006,
              "anisotropy": 1,
              "flipY": true,
              "premultiplyAlpha": false,
              "unpackAlignment": 4,
              "image": "FB7EFF16-4AB5-4608-9798-B335B6E184E6"
            }
          ],
          "images": [
            {
              "uuid": "FB7EFF16-4AB5-4608-9798-B335B6E184E6",
              "url": "data:image/png;base64,"
            }
          ],
          "object": {
            "uuid": "9D502DFB-6054-4FFC-A2B1-52D6A30CFD78",
            "type": "Mesh",
            "name": "Mars",
            "castShadow": true,
            "receiveShadow": true,
            "layers": 1,
            "matrix": [
              -0.2659638756089817,
              0,
              -0.9639829961524478,
              0,
              0,
              1,
              0,
              0,
              0.9639829961524478,
              0,
              -0.2659638756089817,
              0,
              0,
              0,
              0,
              1
            ],
            "geometry": "7A47CBB7-6DFA-4AAE-BE75-58E627F153DC",
            "material": "32404C23-8862-4CBB-B636-76831E1E4737"
          }
        }
      },
      "children": [
        6
      ]
    },
    {
      "rotation": [
        0,
        0.3381966772477915,
        0,
        0.9410754526065129
      ],
      "children": [
        1,
        3,
        5,
        7
      ]
    }
  ],
  "bufferViews": [
    {
      "buffer": 0,
      "byteOffset": 0,
      "byteLength": 50700,
      "target": 34962,
      "byteStride": 12
    },
    {
      "buffer": 0,
      "byteOffset": 50700,
      "byteLength": 50700,
      "target": 34962,
      "byteStride": 12
    },
    {
      "buffer": 0,
      "byteOffset": 101400,
      "byteLength": 33800,
      "target": 34962,
      "byteStride": 8
    },
    {
      "buffer": 0,
      "byteOffset": 135200,
      "byteLength": 48384,
      "target": 34963
    },
    {
      "buffer": 0,
      "byteOffset": 183584,
      "byteLength": 50700,
      "target": 34962,
      "byteStride": 12
    },
    {
      "buffer": 0,
      "byteOffset": 234284,
      "byteLength": 50700,
      "target": 34962,
      "byteStride": 12
    },
    {
      "buffer": 0,
      "byteOffset": 284984,
      "byteLength": 33800,
      "target": 34962,
      "byteStride": 8
    },
    {
      "buffer": 0,
      "byteOffset": 318784,
      "byteLength": 48384,
      "target": 34963
    },
    {
      "buffer": 0,
      "byteOffset": 367168,
      "byteLength": 50700,
      "target": 34962,
      "byteStride": 12
    },
    {
      "buffer": 0,
      "byteOffset": 417868,
      "byteLength": 50700,
      "target": 34962,
      "byteStride": 12
    },
    {
      "buffer": 0,
      "byteOffset": 468568,
      "byteLength": 33800,
      "target": 34962,
      "byteStride": 8
    },
    {
      "buffer": 0,
      "byteOffset": 502368,
      "byteLength": 48384,
      "target": 34963
    },
    {
      "buffer": 0,
      "byteOffset": 550752,
      "byteLength": 50700,
      "target": 34962,
      "byteStride": 12
    },
    {
      "buffer": 0,
      "byteOffset": 601452,
      "byteLength": 50700,
      "target": 34962,
      "byteStride": 12
    },
    {
      "buffer": 0,
      "byteOffset": 652152,
      "byteLength": 33800,
      "target": 34962,
      "byteStride": 8
    },
    {
      "buffer": 0,
      "byteOffset": 685952,
      "byteLength": 48384,
      "target": 34963
    }
  ],
  "buffers": [
    {
      "byteLength": 734336,
      "uri": "data:application/octet-stream;base64,"
    }
  ],
  "accessors": [
    {
      "bufferView": 0,
      "componentType": 5126,
      "count": 4225,
      "max": [
        7.199999809265137,
        7.199999809265137,
        7.199999809265137
      ],
      "min": [
        -7.199999809265137,
        -7.199999809265137,
        -7.199999809265137
      ],
      "type": "VEC3"
    },
    {
      "bufferView": 1,
      "componentType": 5126,
      "count": 4225,
      "max": [
        1,
        1,
        1
      ],
      "min": [
        -1,
        -1,
        -1
      ],
      "type": "VEC3"
    },
    {
      "bufferView": 2,
      "componentType": 5126,
      "count": 4225,
      "max": [
        1.0078125,
        1
      ],
      "min": [
        -0.0078125,
        0
      ],
      "type": "VEC2"
    },
    {
      "bufferView": 3,
      "componentType": 5123,
      "count": 24192,
      "max": [
        4224
      ],
      "min": [
        0
      ],
      "type": "SCALAR"
    },
    {
      "bufferView": 4,
      "componentType": 5126,
      "count": 4225,
      "max": [
        0.6449999809265137,
        0.6449999809265137,
        0.6449999809265137
      ],
      "min": [
        -0.6449999809265137,
        -0.6449999809265137,
        -0.6449999809265137
      ],
      "type": "VEC3"
    },
    {
      "bufferView": 5,
      "componentType": 5126,
      "count": 4225,
      "max": [
        1,
        1,
        1
      ],
      "min": [
        -1,
        -1,
        -1
      ],
      "type": "VEC3"
    },
    {
      "bufferView": 6,
      "componentType": 5126,
      "count": 4225,
      "max": [
        1.0078125,
        1
      ],
      "min": [
        -0.0078125,
        0
      ],
      "type": "VEC2"
    },
    {
      "bufferView": 7,
      "componentType": 5123,
      "count": 24192,
      "max": [
        4224
      ],
      "min": [
        0
      ],
      "type": "SCALAR"
    },
    {
      "bufferView": 8,
      "componentType": 5126,
      "count": 4225,
      "max": [
        0.6150000095367432,
        0.6150000095367432,
        0.6150000095367432
      ],
      "min": [
        -0.6150000095367432,
        -0.6150000095367432,
        -0.6150000095367432
      ],
      "type": "VEC3"
    },
    {
      "bufferView": 9,
      "componentType": 5126,
      "count": 4225,
      "max": [
        1,
        1,
        1
      ],
      "min": [
        -1,
        -1,
        -1
      ],
      "type": "VEC3"
    },
    {
      "bufferView": 10,
      "componentType": 5126,
      "count": 4225,
      "max": [
        1.0078125,
        1
      ],
      "min": [
        -0.0078125,
        0
      ],
      "type": "VEC2"
    },
    {
      "bufferView": 11,
      "componentType": 5123,
      "count": 24192,
      "max": [
        4224
      ],
      "min": [
        0
      ],
      "type": "SCALAR"
    },
    {
      "bufferView": 12,
      "componentType": 5126,
      "count": 4225,
      "max": [
        0.3449999988079071,
        0.3449999988079071,
        0.3449999988079071
      ],
      "min": [
        -0.3449999988079071,
        -0.3449999988079071,
        -0.3449999988079071
      ],
      "type": "VEC3"
    },
    {
      "bufferView": 13,
      "componentType": 5126,
      "count": 4225,
      "max": [
        1,
        1,
        1
      ],
      "min": [
        -1,
        -1,
        -1
      ],
      "type": "VEC3"
    },
    {
      "bufferView": 14,
      "componentType": 5126,
      "count": 4225,
      "max": [
        1.0078125,
        1
      ],
      "min": [
        -0.0078125,
        0
      ],
      "type": "VEC2"
    },
    {
      "bufferView": 15,
      "componentType": 5123,
      "count": 24192,
      "max": [
        4224
      ],
      "min": [
        0
      ],
      "type": "SCALAR"
    }
  ],
  "materials": [
    {
      "pbrMetallicRoughness": {
        "baseColorFactor": [
          0.9019607843137255,
          0.7215686274509804,
          0.611764705882353,
          1
        ],
        "metallicFactor": 0.5,
        "roughnessFactor": 0.5
      }
    },
    {
      "pbrMetallicRoughness": {
        "baseColorFactor": [
          0.2901960784313726,
          0.5647058823529412,
          0.8862745098039215,
          1
        ],
        "metallicFactor": 0.5,
        "roughnessFactor": 0.5
      }
    },
    {
      "pbrMetallicRoughness": {
        "baseColorFactor": [
          0.9607843137254902,
          0.6509803921568628,
          0.13725490196078433,
          1
        ],
        "metallicFactor": 0.5,
        "roughnessFactor": 0.5
      }
    },
    {
      "pbrMetallicRoughness": {
        "baseColorFactor": [
          0.9058823529411765,
          0.2980392156862745,
          0.23529411764705882,
          1
        ],
        "metallicFactor": 0.5,
        "roughnessFactor": 0.5
      }
    }
  ],
  "meshes": [
    {
      "primitives": [
        {
          "mode": 4,
          "attributes": {
            "POSITION": 0,
            "NORMAL": 1,
            "TEXCOORD_0": 2
          },
          "indices": 3,
          "material": 0
        }
      ]
    },
    {
      "primitives": [
        {
          "mode": 4,
          "attributes": {
            "POSITION": 4,
            "NORMAL": 5,
            "TEXCOORD_0": 6
          },
          "indices": 7,
          "material": 1
        }
      ]
    },
    {
      "primitives": [
        {
          "mode": 4,
          "attributes": {
            "POSITION": 8,
            "NORMAL": 9,
            "TEXCOORD_0": 10
          },
          "indices": 11,
          "material": 2
        }
      ]
    },
    {
      "primitives": [
        {
          "mode": 4,
          "attributes": {
            "POSITION": 12,
            "NORMAL": 13,
            "TEXCOORD_0": 14
          },
          "indices": 15,
          "material": 3
        }
      ]
    }
  ]
}